<svg width="349" height="353" viewBox="0 0 349 353" fill="none" xmlns="http://www.w3.org/2000/svg">
<path d="M213.835 23.4182C221.377 3.80357 243.681 -6.29552 261.394 5.01194C276.662 14.7588 290.498 26.6957 302.436 40.4958C322.705 63.928 336.876 92.009 343.692 122.251C350.508 152.493 349.76 183.963 341.513 213.874C333.266 243.784 317.775 271.211 296.413 293.726C275.051 316.241 248.476 333.148 219.043 342.95C189.61 352.752 158.227 355.147 127.674 349.922C97.1214 344.697 68.3417 332.013 43.8843 312.994C29.4763 301.79 16.8304 288.592 6.29749 273.847C-5.9144 256.751 3.00118 233.957 22.1882 225.399V225.399C41.4122 216.824 63.5901 226.152 78.0617 241.438C81.9529 245.548 86.162 249.371 90.6589 252.868C105.244 264.21 122.407 271.774 140.628 274.89C158.848 278.006 177.564 276.578 195.117 270.732C212.669 264.886 228.517 254.804 241.257 241.377C253.997 227.95 263.235 211.593 268.153 193.756C273.071 175.919 273.517 157.151 269.452 139.116C265.387 121.081 256.937 104.334 244.849 90.3603C241.122 86.0514 237.084 82.0472 232.776 78.3755C216.756 64.7222 206.281 43.0646 213.835 23.4182V23.4182Z" fill="url(#paint0_linear_1_191)" fill-opacity="0.65"/>
<defs>
<linearGradient id="paint0_linear_1_191" x1="429.984" y1="128.856" x2="-31.5758" y2="300.584" gradientUnits="userSpaceOnUse">
<stop stop-color="#E57CF7"/>
<stop offset="0.229167" stop-color="#A0A3F1"/>
<stop offset="0.421875" stop-color="#8EB5ED"/>
<stop offset="0.567708" stop-color="#86C0E9" stop-opacity="0.99"/>
<stop offset="0.697917" stop-color="#6597EC"/>
<stop offset="0.869792" stop-color="#4E7CF1"/>
<stop offset="1" stop-color="#4E7CF1"/>
</linearGradient>
</defs>
</svg>
