<svg width="349" height="353" viewBox="0 0 349 353" fill="none" xmlns="http://www.w3.org/2000/svg">
<path d="M213.835 23.4181C221.378 3.80345 243.681 -6.29564 261.394 5.01181C276.663 14.7587 290.498 26.6955 302.436 40.4956C322.706 63.9279 336.876 92.0088 343.692 122.251C350.508 152.493 349.76 183.963 341.513 213.874C333.266 243.784 317.776 271.211 296.413 293.726C275.051 316.241 248.476 333.148 219.043 342.95C189.61 352.752 158.227 355.147 127.674 349.922C97.1215 344.697 68.3418 332.013 43.8844 312.994C29.4764 301.79 16.8305 288.592 6.29762 273.846C-5.91428 256.751 3.0013 233.957 22.1883 225.399V225.399C41.4123 216.824 63.5903 226.152 78.0618 241.438C81.953 245.548 86.1621 249.371 90.659 252.868C105.244 264.209 122.407 271.774 140.628 274.89C158.848 278.006 177.564 276.578 195.117 270.732C212.669 264.886 228.517 254.803 241.257 241.377C253.997 227.95 263.235 211.593 268.153 193.756C273.071 175.919 273.517 157.151 269.453 139.116C265.388 121.081 256.937 104.334 244.849 90.3602C241.122 86.0513 237.084 82.0471 232.776 78.3754C216.756 64.7221 206.281 43.0644 213.835 23.4181V23.4181Z" fill="url(#paint0_linear_1_117)" fill-opacity="0.65"/>
<defs>
<linearGradient id="paint0_linear_1_117" x1="429.985" y1="128.856" x2="-31.5757" y2="300.584" gradientUnits="userSpaceOnUse">
<stop stop-color="#E57CF7"/>
<stop offset="0.229167" stop-color="#A0A3F1"/>
<stop offset="0.421875" stop-color="#8EB5ED"/>
<stop offset="0.567708" stop-color="#86C0E9" stop-opacity="0.99"/>
<stop offset="0.697917" stop-color="#6597EC"/>
<stop offset="0.869792" stop-color="#4E7CF1"/>
<stop offset="1" stop-color="#4E7CF1"/>
</linearGradient>
</defs>
</svg>
