<svg width="368" height="376" viewBox="0 0 368 376" fill="none" xmlns="http://www.w3.org/2000/svg">
<path d="M146.168 350.009C138.543 370.957 115.072 382.081 96.0778 370.412C79.6894 360.344 64.7786 347.928 51.846 333.501C29.8915 309.011 14.3157 279.485 6.49812 247.537C-1.31942 215.589 -1.13734 182.207 7.02822 150.346C15.1938 118.486 31.0908 89.1309 53.3111 64.8817C75.5314 40.6325 103.389 22.2376 134.417 11.3263C165.444 0.41495 198.684 -2.67591 231.191 2.32746C263.699 7.33083 294.47 20.274 320.781 40.0105C336.279 51.6365 349.948 65.4085 361.406 80.857C374.686 98.7621 365.65 123.113 345.446 132.535V132.535C325.242 141.956 301.592 132.494 285.997 116.564C281.769 112.245 277.205 108.239 272.338 104.588C256.648 92.8184 238.297 85.0997 218.911 82.1158C199.524 79.132 179.702 80.9753 161.198 87.4824C142.694 93.9894 126.081 104.959 112.83 119.421C99.5786 133.882 90.0983 151.388 85.2287 170.388C80.3591 189.389 80.2505 209.297 84.9126 228.349C89.5746 247.401 98.8634 265.01 111.956 279.615C116.017 284.145 120.405 288.342 125.077 292.178C142.305 306.325 153.792 329.061 146.168 350.009V350.009Z" fill="url(#paint0_linear_1_116)" fill-opacity="0.65"/>
<defs>
<linearGradient id="paint0_linear_1_116" x1="-85.1561" y1="242.05" x2="400.774" y2="51.1185" gradientUnits="userSpaceOnUse">
<stop stop-color="#E57CF7"/>
<stop offset="0.229167" stop-color="#A0A3F1"/>
<stop offset="0.421875" stop-color="#8EB5ED"/>
<stop offset="0.567708" stop-color="#86C0E9" stop-opacity="0.99"/>
<stop offset="0.697917" stop-color="#6597EC"/>
<stop offset="0.869792" stop-color="#4E7CF1"/>
<stop offset="1" stop-color="#4E7CF1"/>
</linearGradient>
</defs>
</svg>
