<svg width="368" height="376" viewBox="0 0 368 376" fill="none" xmlns="http://www.w3.org/2000/svg">
<path d="M146.168 350.009C138.543 370.957 115.072 382.081 96.0776 370.412C79.6893 360.344 64.7785 347.928 51.8458 333.501C29.8914 309.011 14.3155 279.485 6.498 247.537C-1.31954 215.589 -1.13746 182.207 7.0281 150.346C15.1937 118.486 31.0907 89.131 53.3109 64.8818C75.5312 40.6326 103.389 22.2377 134.417 11.3264C165.444 0.415072 198.684 -2.67579 231.191 2.32758C263.699 7.33095 294.47 20.2741 320.781 40.0106C336.279 51.6367 349.948 65.4086 361.406 80.8571C374.686 98.7622 365.65 123.114 345.446 132.535V132.535C325.242 141.956 301.592 132.494 285.997 116.564C281.769 112.245 277.205 108.239 272.338 104.589C256.648 92.8186 238.297 85.0998 218.91 82.116C199.524 79.1322 179.702 80.9754 161.198 87.4825C142.694 93.9896 126.081 104.96 112.83 119.421C99.5785 133.882 90.0982 151.388 85.2286 170.389C80.359 189.389 80.2504 209.297 84.9124 228.349C89.5745 247.401 98.8633 265.01 111.956 279.615C116.017 284.145 120.405 288.343 125.077 292.178C142.305 306.325 153.792 329.061 146.168 350.009V350.009Z" fill="url(#paint0_linear_1_190)" fill-opacity="0.65"/>
<defs>
<linearGradient id="paint0_linear_1_190" x1="-85.1562" y1="242.05" x2="400.774" y2="51.1186" gradientUnits="userSpaceOnUse">
<stop stop-color="#E57CF7"/>
<stop offset="0.229167" stop-color="#A0A3F1"/>
<stop offset="0.421875" stop-color="#8EB5ED"/>
<stop offset="0.567708" stop-color="#86C0E9" stop-opacity="0.99"/>
<stop offset="0.697917" stop-color="#6597EC"/>
<stop offset="0.869792" stop-color="#4E7CF1"/>
<stop offset="1" stop-color="#4E7CF1"/>
</linearGradient>
</defs>
</svg>
