<svg width="201" height="95" viewBox="0 0 201 95" fill="none" xmlns="http://www.w3.org/2000/svg">
<path d="M193.099 65.6118H183.372L172.099 53.5208L161.717 65.6118H153.244L167.862 49.5857L153.008 34.4074H162.49L172.335 44.9871L186.844 28.6384H195.072L176.517 48.7378L193.099 65.6118Z" fill="url(#paint0_linear_1_21)"/>
<path d="M150.417 65.6118H118.626V34.4075H150.126V39.7341H125.781V46.6828H139.981V52.0094H125.781V59.7506H150.417V65.6118Z" fill="url(#paint1_linear_1_21)"/>
<path fill-rule="evenodd" clip-rule="evenodd" d="M114.117 49.8253C114.117 55.8769 111.85 60.3343 107.317 63.1973C104.729 64.8069 100.511 65.6118 94.6624 65.6118H76.7079V34.4075H96.517C101.844 34.4075 106.02 35.6178 109.044 38.0385C112.426 40.6987 114.117 44.6277 114.117 49.8253ZM106.717 49.7055C106.717 43.2177 103.335 39.9737 96.5715 39.9737H83.8715V59.7506H93.117C97.4867 59.7506 100.668 59.1854 102.662 58.0549C105.365 56.5251 106.717 53.742 106.717 49.7055Z" fill="url(#paint2_linear_1_21)"/>
<path d="M68.0806 62.9761C64.4715 71.0582 56.4715 81.8129 38.8806 87.2041L38.3624 87.3608V83.6008C51.1261 79.5643 60.017 72.1733 64.7806 61.6398C68.4079 53.6406 68.1806 46.6828 68.1715 46.6182V19.0265L48.4261 13.1745V39.4116L57.6352 42.6371V18.7224L65.5079 21.0539V45.3926V46.8579C65.517 47.5582 65.4715 50.1018 64.6897 53.5577C64.1897 55.7694 63.3897 58.359 62.0988 61.0777C60.8867 63.6396 59.3988 65.9988 57.6352 68.1553C56.2897 69.8049 54.7806 71.3347 53.1261 72.7447C51.6715 73.9704 50.1079 75.1039 48.4261 76.1361C46.0352 77.6106 43.4079 78.9008 40.5533 79.9882V61.861H48.4261V66.3029C49.3412 65.4981 50.1897 64.6503 50.9715 63.7594C52.2927 62.2542 53.4291 60.6199 54.3806 58.8567C54.5988 58.4512 54.8079 58.0395 55.0079 57.6218C56.1806 55.1427 56.8352 52.7928 57.1988 50.9312L48.4261 47.8624L40.5533 45.1069V7.08295L48.4261 9.41452V9.42373L71.7261 16.3263V46.5077C71.7442 47.208 71.8988 54.4608 68.0806 62.9761V62.9761Z" fill="url(#paint3_linear_1_21)"/>
<path d="M8.56245 47.1712C8.55336 47.2357 8.32609 54.1935 11.9534 62.1927C15.3352 69.6759 20.7988 75.5647 28.2534 79.8039V29.2006L28.0261 29.4678L22.7443 35.458L19.0897 31.311V46.95L19.1079 47.1804L19.0897 47.549C19.0988 48.2678 19.2352 52.931 21.7261 58.1747C22.617 60.0547 23.7079 61.7995 24.9988 63.4092V74.422C20.4988 70.9661 17.0352 66.69 14.6352 61.6306C11.9534 55.9814 11.3715 50.7837 11.2534 48.5167C11.217 47.9361 11.217 47.5398 11.217 47.3924L11.2261 47.0975V21.6069L19.0625 19.2845L22.7443 23.4684L28.2534 17.211L29.0261 16.3355L36.1261 14.2251V87.3239C34.6988 86.7802 33.3715 86.2549 32.0806 85.6927C30.7897 85.1398 29.5352 84.55 28.2534 83.868C17.1806 78.0898 11.5261 69.9616 8.64427 63.529C4.83518 55.0137 4.98063 47.761 5.0079 47.0606V16.8792L38.3625 7V10.7508L8.56245 19.5794V47.1712Z" fill="url(#paint4_linear_1_21)"/>
<defs>
<linearGradient id="paint0_linear_1_21" x1="195.072" y1="30.6659" x2="195.072" y2="65.7961" gradientUnits="userSpaceOnUse">
<stop stop-color="white"/>
<stop offset="1" stop-color="#9FA8AA"/>
</linearGradient>
<linearGradient id="paint1_linear_1_21" x1="150.417" y1="36.5916" x2="150.417" y2="67.7959" gradientUnits="userSpaceOnUse">
<stop stop-color="white"/>
<stop offset="0.1" stop-color="white"/>
<stop offset="1" stop-color="#9FA8AA"/>
</linearGradient>
<linearGradient id="paint2_linear_1_21" x1="114.117" y1="35.9649" x2="114.117" y2="67.1692" gradientUnits="userSpaceOnUse">
<stop stop-color="white"/>
<stop offset="0.1" stop-color="white"/>
<stop offset="1" stop-color="#9FA8AA"/>
</linearGradient>
<linearGradient id="paint3_linear_1_21" x1="45.8715" y1="-7.25666" x2="82.1441" y2="35.395" gradientUnits="userSpaceOnUse">
<stop stop-color="#8B63FD"/>
<stop offset="0.1" stop-color="#927AF9"/>
<stop offset="0.2" stop-color="#9291F6"/>
<stop offset="0.3" stop-color="#89A1F0"/>
<stop offset="0.4" stop-color="#7BA9F0"/>
<stop offset="0.5" stop-color="#6EBCE9"/>
<stop offset="0.7" stop-color="#7BA9F0"/>
<stop offset="0.8" stop-color="#4E8BED"/>
<stop offset="0.9" stop-color="#3C7AF2"/>
<stop offset="1" stop-color="#2B63F5"/>
</linearGradient>
<linearGradient id="paint4_linear_1_21" x1="37.1988" y1="2.3" x2="73.4714" y2="44.9517" gradientUnits="userSpaceOnUse">
<stop stop-color="#8B63FD"/>
<stop offset="0.1" stop-color="#927AF9"/>
<stop offset="0.2" stop-color="#9291F6"/>
<stop offset="0.3" stop-color="#89A1F0"/>
<stop offset="0.4" stop-color="#7BA9F0"/>
<stop offset="0.5" stop-color="#6EBCE9"/>
<stop offset="0.7" stop-color="#7BA9F0"/>
<stop offset="0.8" stop-color="#4E8BED"/>
<stop offset="0.9" stop-color="#3C7AF2"/>
<stop offset="1" stop-color="#2B63F5"/>
</linearGradient>
</defs>
</svg>
