<svg width="218" height="208" viewBox="0 0 218 208" fill="none" xmlns="http://www.w3.org/2000/svg">
<path d="M104.245 3.63525C105.741 -0.971304 112.259 -0.971298 113.755 3.63525L135.942 71.918C136.611 73.9781 138.531 75.3729 140.697 75.3729H212.494C217.337 75.3729 219.351 81.571 215.433 84.418L157.348 126.619C155.595 127.892 154.862 130.149 155.531 132.209L177.718 200.492C179.215 205.098 173.942 208.929 170.024 206.082L111.939 163.881C110.186 162.608 107.814 162.608 106.061 163.881L47.9763 206.082C44.0578 208.929 38.7854 205.098 40.2821 200.492L62.4685 132.209C63.1379 130.149 62.4046 127.892 60.6522 126.619L2.56742 84.418C-1.35115 81.571 0.66274 75.3729 5.50636 75.3729H77.303C79.4692 75.3729 81.389 73.9781 82.0583 71.918L104.245 3.63525Z" fill="#643ED3"/>
</svg>
